<?xml version="1.0" encoding="utf-8"?>
<!-- Generator: Adobe Illustrator 24.0.2, SVG Export Plug-In . SVG Version: 6.00 Build 0)  -->
<svg version="1.1" id="Layer_1" xmlns="http://www.w3.org/2000/svg" xmlns:xlink="http://www.w3.org/1999/xlink" x="0px" y="0px"
	 viewBox="0 0 797.8 273.3" style="enable-background:new 0 0 797.8 273.3;" xml:space="preserve">
<style type="text/css">
	.st0{fill:#00AEDE;}
	.st1{fill:#1D3C5A;}
</style>
<path class="st0" d="M0,140.9l107.5-61.8l106.8,61.8v59.9l-106.8-62.6L0,200.9V140.9z"/>
<path class="st0" d="M57.1,184.1l50.4,29.4l50.3-29.4l51.3,30.2l-101.6,59l-102.1-59L57.1,184.1z"/>
<path class="st1" d="M0,62.4v59.8l107.1-61.7l107.1,61.7V62.4L106.8,0L57.5,29.2v-24H17.3v47.1L0,62.4z"/>
<path class="st1" d="M381.8,164.1l-8-23.2h-63.5l-8,23.2h-47L315.9,3.2H368l60.8,160.9L381.8,164.1z M342,44.2l-20.5,60.6h41
	L342,44.2z M427.9,83.8c0-51.2,39.1-83.2,87.1-83.2c36,0,57.7,19.1,68.8,39.1l-34.8,18c-6-10.6-18.3-20.5-34-20.5
	c-26.3,0-44.9,20.3-44.9,46.6s18.6,46.6,44.9,46.6c11.8,0,23.9-4.8,29.7-9.6v-12.6h-36.2V71.7h77.7v63.9
	C568.8,154.7,545.4,167,515,167C467,167,427.9,134.9,427.9,83.8L427.9,83.8z M755.8,164.1V59.4L715,164.1h-18.3L656.2,59.4v104.7
	h-41.5V3.2h57.7l33.5,87.3l33.8-87.3h57.7v160.9L755.8,164.1L755.8,164.1z"/>
<path class="st0" d="M254.2,198.4h543.2v4.9H254.2V198.4z"/>
<g>
	<path class="st0" d="M281.5,265.7h-5.2c-1,0-1.8-0.4-2.2-1.2l-8.4-12.1c-0.3-0.4-0.6-0.7-0.9-0.9c-0.3-0.2-0.8-0.3-1.5-0.3H260
		v14.5h-5.8v-35.9h10.6c2.4,0,4.4,0.2,6.1,0.7c1.7,0.5,3.1,1.2,4.2,2.1c1.1,0.9,1.9,2,2.4,3.2c0.5,1.2,0.8,2.6,0.8,4.2
		c0,1.2-0.2,2.4-0.6,3.5c-0.4,1.1-0.9,2.1-1.6,2.9c-0.7,0.9-1.6,1.6-2.6,2.3c-1,0.6-2.2,1.2-3.5,1.5c0.7,0.4,1.3,1,1.8,1.8
		L281.5,265.7z M264.6,247c1.3,0,2.5-0.2,3.5-0.5c1-0.3,1.8-0.8,2.5-1.4c0.7-0.6,1.2-1.3,1.5-2.1c0.3-0.8,0.5-1.7,0.5-2.7
		c0-2-0.6-3.5-1.9-4.5c-1.3-1-3.3-1.5-5.9-1.5H260V247H264.6z"/>
	<path class="st0" d="M328.2,261l0,4.7h-22.4v-35.9h22.4v4.7h-16.5v10.8h13.2v4.6h-13.2V261H328.2z"/>
	<path class="st0" d="M384.2,229.8v35.9h-3c-0.4,0-0.8-0.1-1.1-0.2c-0.3-0.2-0.6-0.4-0.9-0.8l-19.7-25.3c0,0.5,0.1,1,0.1,1.4
		c0,0.5,0,0.9,0,1.3v23.6h-5.1v-35.9h3c0.2,0,0.5,0,0.6,0c0.2,0,0.3,0.1,0.5,0.1c0.1,0.1,0.3,0.2,0.4,0.3c0.1,0.1,0.3,0.3,0.4,0.5
		l19.8,25.4c0-0.5-0.1-1-0.1-1.5c0-0.5,0-1,0-1.4v-23.4H384.2z"/>
	<path class="st0" d="M446.5,247.7c0,2.7-0.4,5.1-1.3,7.4c-0.9,2.2-2.1,4.2-3.7,5.8c-1.6,1.6-3.5,2.9-5.7,3.8
		c-2.2,0.9-4.7,1.4-7.3,1.4c-2.7,0-5.1-0.5-7.3-1.4c-2.2-0.9-4.1-2.2-5.7-3.8c-1.6-1.6-2.8-3.6-3.7-5.8c-0.9-2.2-1.3-4.7-1.3-7.4
		c0-2.7,0.4-5.1,1.3-7.4c0.9-2.2,2.1-4.2,3.7-5.8c1.6-1.6,3.5-2.9,5.7-3.8c2.2-0.9,4.6-1.4,7.3-1.4c2.7,0,5.1,0.5,7.3,1.4
		c2.2,0.9,4.1,2.2,5.7,3.8c1.6,1.6,2.8,3.6,3.7,5.8C446,242.6,446.5,245.1,446.5,247.7z M440.5,247.7c0-2.1-0.3-3.9-0.8-5.6
		c-0.6-1.6-1.4-3-2.4-4.2c-1-1.1-2.3-2-3.8-2.6s-3.1-0.9-5-0.9c-1.8,0-3.5,0.3-5,0.9c-1.5,0.6-2.7,1.5-3.8,2.6
		c-1,1.1-1.9,2.5-2.4,4.2c-0.6,1.6-0.8,3.5-0.8,5.6c0,2.1,0.3,3.9,0.8,5.6s1.4,3,2.4,4.2c1,1.1,2.3,2,3.8,2.6c1.5,0.6,3.1,0.9,5,0.9
		c1.8,0,3.5-0.3,5-0.9c1.5-0.6,2.7-1.5,3.8-2.6c1-1.1,1.8-2.5,2.4-4.2S440.5,249.8,440.5,247.7z"/>
	<path class="st0" d="M501.8,229.8l-14.6,35.9h-5.3l-14.6-35.9h4.7c0.5,0,0.9,0.1,1.2,0.4c0.3,0.3,0.6,0.6,0.7,1l9.3,23.4
		c0.5,1.3,1,2.8,1.4,4.5c0.2-0.8,0.4-1.7,0.6-2.4c0.2-0.8,0.4-1.5,0.7-2.1l9.2-23.4c0.1-0.3,0.4-0.6,0.7-0.9
		c0.3-0.3,0.7-0.4,1.2-0.4H501.8z"/>
	<path class="st0" d="M553.2,265.7h-4.5c-0.5,0-0.9-0.1-1.2-0.4c-0.3-0.3-0.6-0.6-0.7-1l-3-7.9h-15.5l-3,7.9
		c-0.1,0.3-0.4,0.6-0.7,0.9c-0.3,0.3-0.7,0.4-1.2,0.4h-4.5l14.2-35.9h5.9L553.2,265.7z M542.1,252.2l-4.9-13.1
		c-0.4-1-0.8-2.3-1.2-3.9c-0.2,0.8-0.4,1.5-0.6,2.2c-0.2,0.7-0.4,1.2-0.6,1.7l-4.9,13.1H542.1z"/>
	<path class="st0" d="M598.5,234.6h-11.2v31h-5.8v-31h-11.2v-4.9h28.2V234.6z"/>
	<path class="st0" d="M629.3,265.7h-5.9v-35.9h5.9V265.7z"/>
	<path class="st0" d="M691.5,247.7c0,2.7-0.4,5.1-1.3,7.4c-0.9,2.2-2.1,4.2-3.7,5.8c-1.6,1.6-3.5,2.9-5.7,3.8
		c-2.2,0.9-4.7,1.4-7.3,1.4c-2.7,0-5.1-0.5-7.3-1.4s-4.1-2.2-5.7-3.8c-1.6-1.6-2.8-3.6-3.7-5.8c-0.9-2.2-1.3-4.7-1.3-7.4
		c0-2.7,0.4-5.1,1.3-7.4c0.9-2.2,2.1-4.2,3.7-5.8c1.6-1.6,3.5-2.9,5.7-3.8s4.6-1.4,7.3-1.4c2.7,0,5.1,0.5,7.3,1.4
		c2.2,0.9,4.1,2.2,5.7,3.8c1.6,1.6,2.8,3.6,3.7,5.8C691.1,242.6,691.5,245.1,691.5,247.7z M685.6,247.7c0-2.1-0.3-3.9-0.8-5.6
		c-0.6-1.6-1.4-3-2.4-4.2c-1-1.1-2.3-2-3.8-2.6s-3.1-0.9-5-0.9c-1.8,0-3.5,0.3-5,0.9c-1.5,0.6-2.7,1.5-3.8,2.6
		c-1,1.1-1.9,2.5-2.4,4.2c-0.6,1.6-0.8,3.5-0.8,5.6c0,2.1,0.3,3.9,0.8,5.6s1.4,3,2.4,4.2c1,1.1,2.3,2,3.8,2.6c1.5,0.6,3.1,0.9,5,0.9
		c1.8,0,3.5-0.3,5-0.9c1.5-0.6,2.7-1.5,3.8-2.6c1-1.1,1.8-2.5,2.4-4.2C685.3,251.7,685.6,249.8,685.6,247.7z"/>
	<path class="st0" d="M747.6,229.8v35.9h-3c-0.4,0-0.8-0.1-1.1-0.2c-0.3-0.2-0.6-0.4-0.9-0.8l-19.7-25.3c0,0.5,0.1,1,0.1,1.4
		c0,0.5,0,0.9,0,1.3v23.6h-5.1v-35.9h3c0.2,0,0.5,0,0.6,0c0.2,0,0.3,0.1,0.5,0.1c0.1,0.1,0.3,0.2,0.4,0.3c0.1,0.1,0.3,0.3,0.4,0.5
		l19.8,25.4c0-0.5-0.1-1-0.1-1.5c0-0.5,0-1,0-1.4v-23.4H747.6z"/>
	<path class="st0" d="M794.9,235.9c-0.2,0.3-0.4,0.5-0.6,0.7c-0.2,0.1-0.4,0.2-0.7,0.2c-0.3,0-0.7-0.1-1.1-0.4
		c-0.4-0.3-0.9-0.6-1.4-0.9c-0.6-0.3-1.3-0.6-2-0.9c-0.8-0.3-1.7-0.4-2.8-0.4c-1,0-1.9,0.1-2.6,0.4c-0.8,0.2-1.4,0.6-1.9,1
		c-0.5,0.4-0.9,1-1.2,1.6s-0.4,1.3-0.4,2c0,0.9,0.2,1.7,0.7,2.3c0.5,0.6,1.1,1.1,1.9,1.6c0.8,0.4,1.7,0.8,2.7,1.1c1,0.3,2,0.7,3.1,1
		c1.1,0.4,2.1,0.8,3.1,1.2c1,0.5,1.9,1.1,2.7,1.8c0.8,0.7,1.4,1.6,1.9,2.6c0.5,1,0.7,2.3,0.7,3.8c0,1.6-0.3,3.1-0.8,4.5
		c-0.5,1.4-1.3,2.6-2.4,3.7c-1,1-2.3,1.9-3.8,2.5c-1.5,0.6-3.3,0.9-5.2,0.9c-1.1,0-2.3-0.1-3.4-0.3c-1.1-0.2-2.1-0.5-3.1-0.9
		c-1-0.4-1.9-0.9-2.8-1.5c-0.9-0.6-1.6-1.2-2.3-1.9l1.7-2.8c0.1-0.2,0.3-0.4,0.6-0.5c0.2-0.1,0.5-0.2,0.8-0.2c0.4,0,0.8,0.2,1.3,0.5
		s1,0.7,1.7,1.2c0.7,0.4,1.5,0.8,2.4,1.2c0.9,0.4,2,0.5,3.3,0.5c2.1,0,3.7-0.5,4.9-1.5c1.2-1,1.7-2.5,1.7-4.3c0-1-0.2-1.8-0.7-2.5
		c-0.5-0.6-1.1-1.2-1.9-1.6c-0.8-0.4-1.7-0.8-2.7-1.1c-1-0.3-2-0.6-3.1-1c-1-0.3-2.1-0.7-3.1-1.2c-1-0.5-1.9-1.1-2.7-1.8
		c-0.8-0.7-1.4-1.7-1.9-2.7s-0.7-2.4-0.7-4.1c0-1.3,0.3-2.6,0.8-3.8c0.5-1.2,1.2-2.3,2.2-3.2c1-0.9,2.2-1.7,3.6-2.3
		c1.4-0.6,3.1-0.8,4.9-0.8c2.1,0,4,0.3,5.7,1c1.7,0.6,3.2,1.6,4.5,2.8L794.9,235.9z"/>
</g>
</svg>
